<?xml version="1.0" encoding="UTF-8" standalone="no"?>
<!-- Created with Inkscape (http://www.inkscape.org/) -->

<svg
   xmlns:dc="http://purl.org/dc/elements/1.1/"
   xmlns:cc="http://creativecommons.org/ns#"
   xmlns:rdf="http://www.w3.org/1999/02/22-rdf-syntax-ns#"
   xmlns:svg="http://www.w3.org/2000/svg"
   xmlns="http://www.w3.org/2000/svg"
   xmlns:sodipodi="http://sodipodi.sourceforge.net/DTD/sodipodi-0.dtd"
   xmlns:inkscape="http://www.inkscape.org/namespaces/inkscape"
   width="500"
   height="500"
   viewBox="0 0 132.29166 132.29167"
   version="1.1"
   id="svg8"
   sodipodi:docname="beer.svg"
   inkscape:version="0.92.3 (2405546, 2018-03-11)">
  <defs
     id="defs2" />
  <sodipodi:namedview
     id="base"
     pagecolor="#ffffff"
     bordercolor="#666666"
     borderopacity="1.0"
     inkscape:pageopacity="0.0"
     inkscape:pageshadow="2"
     inkscape:zoom="1.979899"
     inkscape:cx="-133.73691"
     inkscape:cy="292.78991"
     inkscape:document-units="mm"
     inkscape:current-layer="Layer_3"
     showgrid="false"
     showguides="true"
     inkscape:guide-bbox="true"
     units="px"
     inkscape:snap-global="true"
     inkscape:window-width="1920"
     inkscape:window-height="1173"
     inkscape:window-x="0"
     inkscape:window-y="27"
     inkscape:window-maximized="1" />
  <metadata
     id="metadata5">
    <rdf:RDF>
      <cc:Work
         rdf:about="">
        <dc:format>image/svg+xml</dc:format>
        <dc:type
           rdf:resource="http://purl.org/dc/dcmitype/StillImage" />
        <dc:title></dc:title>
      </cc:Work>
    </rdf:RDF>
  </metadata>
  <g
     inkscape:groupmode="layer"
     id="layer2"
     inkscape:label="BG"
     style="display:inline"
     transform="matrix(0.26998299,0,0,0.26998299,-2.9698121,-2.969)">
    <g
       id="Layer_3"
       style="fill:#3b7bbe;fill-opacity:1">
      <rect
         style="fill:#3b7bbe;fill-opacity:1;stroke:none;stroke-width:62.5302124;stroke-miterlimit:4;stroke-dasharray:none;stroke-opacity:0.55294118"
         id="rect1149"
         width="490"
         height="490"
         x="10.999997"
         y="10.996988" />
    </g>
  </g>
  <g
     transform="translate(0,-164.70832)"
     id="g936"
     inkscape:groupmode="layer"
     inkscape:label="Empty Content"
     style="display:inline">
    <g
       transform="matrix(0.26998299,0,0,0.26998299,-2.9698121,161.73932)"
       id="g930">
      <g
         id="g926" />
      <g
         id="g928" />
    </g>
    <path
       inkscape:connector-curvature="0"
       style="fill:#fffdf7;fill-opacity:1;stroke-width:0.28105429"
       d="m 80.751311,270.10363 c -0.387032,-3.16589 -1.18247,-5.3002 -1.659617,-8.47703 -0.477726,-3.17656 -1.757532,-12.95294 0.118997,-20.38196 1.41238,-5.59009 3.905849,-14.77983 4.859567,-23.01864 0.702722,-6.06898 0.773775,-12.77982 0.629938,-13.85681 -0.129685,-0.97335 -9.092949,-1.45988 -17.308143,-1.46043 -8.214905,5.5e-4 -17.178169,0.48736 -17.307853,1.46043 -0.143837,1.07699 -0.151347,7.08005 0.550799,13.14902 0.954005,8.23882 3.526326,18.13607 4.938705,23.72616 1.87653,7.42902 0.596435,17.2054 0.118998,20.38196 -0.477147,3.17656 -1.272874,5.31086 -1.659906,8.47702 -2.89e-4,0 -5.77e-4,0 -5.77e-4,0 -0.07539,0.86587 -0.165501,2.15345 -0.166079,2.22647 0,0.0413 5.78e-4,0.26693 0.0026,0.33666 0,0.001 2.89e-4,0.003 2.89e-4,0.003 0.0061,0.22509 0.01906,0.43813 0.04217,0.63367 0.351794,2.97173 7.68028,3.34038 13.057718,3.34038 0.110623,0 0.21489,-10e-4 0.32349,-10e-4 0.03322,0 0.06643,2.7e-4 0.09964,5.4e-4 0.03322,-2.7e-4 0.06615,-2.7e-4 0.09993,-5.4e-4 0.1086,2.7e-4 0.212579,10e-4 0.323489,10e-4 5.37715,0 12.705636,-0.36865 13.057431,-3.34038 0.0234,-0.19554 0.03639,-0.40858 0.04246,-0.63367 0,0 0,-0.002 0,-0.003 0.0024,-0.0697 0.0029,-0.29536 0.0029,-0.33666 -5.78e-4,-0.073 -0.09069,-1.3606 -0.165788,-2.22647 0,2.8e-4 -5.78e-4,2.8e-4 -0.0012,2.8e-4 z"
       id="path934" />
  </g>
  <g
     id="beer-group"
     inkscape:groupmode="layer"
     inkscape:label="Beer"
     style="display:inline">
    <g
       id="g902">
      <g
         id="g898" />
      <g
         id="g900" />
    </g>
    <path
       transform="translate(0,-164.70832)"
       inkscape:connector-curvature="0"
       style="display:inline;fill:#e6a52e;stroke-width:0.26998299"
       d="m 83.570269,204.82294 c -0.121223,-0.96087 -8.499605,-1.44117 -16.178732,-1.44171 -7.678856,5.4e-4 -16.057239,0.48111 -16.178461,1.44171 -7.405372,10.66657 -9.65192,73.34226 -9.65192,73.34226 h 51.660699 c 0,0 -0.606352,-54.62683 -9.651586,-73.34226 z"
       id="beer-path"
       sodipodi:nodetypes="cccccc" />
  </g>
  <g
     style="display:inline"
     transform="translate(0,-164.70832)"
     id="g946"
     inkscape:groupmode="layer"
     inkscape:label="Glass Mask">
    <path
       style="fill:#3b7bbe;fill-opacity:1;stroke:none;stroke-width:1.85325122;stroke-miterlimit:4;stroke-dasharray:none;stroke-opacity:0.55294118"
       d="m 31.366389,189.84196 v 89.43271 h 69.558891 v -89.43271 z m 35.950242,6.95137 h 5.16e-4 c 9.074646,-0.008 18.208762,0.54126 18.352293,1.64631 0.01476,0.11188 0.02535,0.22473 0.03903,0.33687 0.331862,2.75553 0.357743,5.58367 0.385646,8.36146 0.111874,11.1466 -2.370158,20.16447 -5.063712,31.10529 -2.060409,8.37201 -1.012839,19.01368 -0.488346,22.59336 0.524489,3.57969 1.089378,5.98544 1.514336,9.55332 h 0.001 5.12e-4 c 0.0821,0.97575 0.181271,2.42663 0.181271,2.50901 1.97e-4,0.0467 -8.97e-4,0.30088 -0.0031,0.37948 0,0.002 -5.13e-4,0.004 -5.13e-4,0.004 -0.0064,0.25379 -0.02073,0.49376 -0.04622,0.71429 -0.386056,3.34896 -8.433548,3.76453 -14.338707,3.76453 -0.121533,0 -0.235962,-0.002 -0.35535,-0.002 -0.0601,2.7e-4 -0.119674,7.6e-4 -0.178702,10e-4 h -5.12e-4 c -0.05902,-5.4e-4 -0.118602,-10e-4 -0.178702,-10e-4 -0.119385,9.9e-4 -0.233814,0.002 -0.355347,0.002 -5.904891,0 -13.952651,-0.41557 -14.338709,-3.76453 -0.02549,-0.2208 -0.04006,-0.4605 -0.04622,-0.71429 0,0 -5.13e-4,-0.003 -5.13e-4,-0.004 -0.0022,-0.0786 -0.0033,-0.33278 -0.0031,-0.37948 5.36e-4,-0.0824 0.09967,-1.53326 0.182296,-2.50901 h 10e-4 c 0.42496,-3.56788 0.99063,-5.97363 1.514852,-9.55332 0.524224,-3.57968 1.571815,-14.22108 -0.488859,-22.59336 -2.693554,-10.94082 -5.175584,-19.95842 -5.063713,-31.10529 0.02817,-2.77698 0.05405,-5.60444 0.385646,-8.3589 0.01368,-0.11294 0.02478,-0.22674 0.03954,-0.33943 0.143532,-1.10478 9.27765,-1.65326 18.352293,-1.64631 z"
       id="rect948"
       inkscape:connector-curvature="0" />
    <g
       transform="matrix(0.26998299,0,0,0.26998299,-2.9698121,161.73932)"
       id="g942">
      <g
         id="g938" />
      <g
         id="g940" />
    </g>
  </g>
  <g
     style="display:inline"
     id="foam-group"
     inkscape:groupmode="layer"
     inkscape:label="Foam">
    <g
       id="g955">
      <g
         id="g951" />
      <g
         id="g953" />
    </g>
    <path
       inkscape:connector-curvature="0"
       style="fill:#ffffff;stroke-width:0.26998299"
       d="m 67.324042,32.512169 v 0 h 5.4e-4 c 9.132175,-0.007 18.324286,0.54482 18.468727,1.65661 0.01485,0.11259 0.02538,0.22625 0.03915,0.3391 -0.06642,-3.19957 -1.947387,-5.956087 -4.668276,-7.299257 -1.036735,-2.825907 -3.772472,-4.844567 -6.98419,-4.844567 -0.118523,0 -0.236235,0.004 -0.353408,0.009 -1.360714,-1.51542 -3.343739,-2.471157 -5.55247,-2.471157 -2.248689,0 -4.262222,0.990567 -5.624826,2.553497 -0.380676,-0.0597 -0.770801,-0.0913 -1.168756,-0.0913 -3.02354,0 -5.623476,1.78998 -6.783323,4.357247 -3.360479,1.05105 -5.806255,4.13155 -5.88104,7.789007 0.01377,-0.11366 0.02457,-0.22813 0.03942,-0.34153 0.14417,-1.11206 9.336282,-1.66417 18.468457,-1.65661 z"
       id="foam-path" />
  </g>
  <g
     inkscape:label="Glass"
     inkscape:groupmode="layer"
     id="g924"
     transform="translate(0,-164.70832)"
     style="display:inline">
    <g
       id="g916"
       transform="matrix(0.26998299,0,0,0.26998299,-2.9698121,161.73932)">
      <g
         id="g912" />
      <g
         id="g914" />
    </g>
    <path
       id="path920"
       d="m 82.158528,270.61698 c 0,0 -8.1e-4,0 -0.0011,0 -0.427653,-3.5905 -0.996508,-6.01117 -1.524324,-9.61355 -0.527817,-3.60238 -1.581561,-14.31153 0.491909,-22.73662 2.710629,-11.01018 5.208242,-20.08538 5.095659,-31.30264 -0.02808,-2.7954 -0.05427,-5.64156 -0.388236,-8.41456 -0.01377,-0.11285 -0.0243,-0.22651 -0.03915,-0.3391 -0.144441,-1.11206 -9.336552,-1.66417 -18.468727,-1.65661 h -2.7e-4 -2.7e-4 c -9.132175,-0.007 -18.324287,0.54482 -18.468727,1.65661 -0.01485,0.1134 -0.02565,0.22787 -0.03942,0.34153 -0.333699,2.77192 -0.359887,5.61754 -0.388236,8.41213 -0.112582,11.21753 2.38503,20.29246 5.09566,31.30264 2.073739,8.42536 1.019455,19.13424 0.491909,22.73662 -0.527547,3.60238 -1.096671,6.02305 -1.524324,9.61355 -2.7e-4,0 -8.1e-4,0 -8.1e-4,0 -0.08315,0.98193 -0.183049,2.442 -0.183589,2.52489 -2.7e-4,0.047 8.1e-4,0.30292 0.003,0.38202 0,0.001 2.7e-4,0.004 2.7e-4,0.004 0.0062,0.2554 0.02106,0.49677 0.04671,0.71897 0.388506,3.37019 8.487456,3.7884 14.429781,3.7884 0.122303,0 0.237316,-10e-4 0.357458,-0.002 0.06048,0 0.120412,2.7e-4 0.179809,8.1e-4 h 2.7e-4 2.7e-4 c 0.0594,-2.7e-4 0.119332,-5.4e-4 0.179808,-8.1e-4 0.120143,2.7e-4 0.235155,0.002 0.357458,0.002 5.942596,0 14.041276,-0.41821 14.429781,-3.7884 0.02565,-0.22193 0.04023,-0.46357 0.04671,-0.71897 0,0 2.7e-4,-0.002 2.7e-4,-0.004 0.0022,-0.0791 0.0032,-0.33505 0.003,-0.38202 0,-0.0829 -0.09989,-1.54296 -0.182508,-2.52489 z m -2.125847,1.628 c 0,10e-4 0,0.003 0,0.003 -0.0057,0.2222 -0.01782,0.43251 -0.03969,0.62555 -0.328839,2.93364 -7.179118,3.29757 -12.205392,3.29757 -0.103673,0 -0.200867,-0.001 -0.302381,-0.001 -0.03132,0 -0.0621,2.7e-4 -0.09341,5.4e-4 -0.03078,-2.7e-4 -0.06183,-2.7e-4 -0.09314,-5.4e-4 -0.101513,2.7e-4 -0.198977,0.001 -0.302381,0.001 -5.026543,0 -11.876822,-0.36393 -12.205661,-3.29757 -0.0216,-0.19304 -0.03402,-0.40335 -0.03942,-0.62555 0,0 -2.7e-4,-0.002 -2.7e-4,-0.003 -0.0019,-0.0688 -0.0024,-0.29158 -0.0024,-0.33235 5.4e-4,-0.0721 0.08478,-1.34316 0.155241,-2.19793 0,0 2.7e-4,0 5.4e-4,0 0.361777,-3.12532 1.10558,-5.23227 1.551592,-8.36839 0.446282,-3.13585 1.642847,-12.78694 -0.111233,-20.12076 -1.320217,-5.51845 -3.724686,-15.28886 -4.616439,-23.4221 -0.656599,-5.99119 -0.649309,-11.91759 -0.514858,-12.98051 0.121222,-0.96087 8.499335,-1.44117 16.178461,-1.44171 7.678857,5.4e-4 16.057509,0.48111 16.178732,1.44171 0.134451,1.06319 0.06804,7.68803 -0.588833,13.67923 -0.891484,8.13323 -3.222517,17.20493 -4.542464,22.72365 -1.75408,7.33382 -0.557785,16.98491 -0.111233,20.12076 0.446012,3.13585 1.189545,5.2428 1.551322,8.36839 5.4e-4,0 0.0011,0 0.0011,0 0.0702,0.85477 0.15443,2.12585 0.15497,2.19793 -2.7e-4,0.0405 -8.1e-4,0.26324 -0.0027,0.33208 z"
       style="fill:#eaebec;stroke-width:0.26998299"
       inkscape:connector-curvature="0" />
  </g>
</svg>
