<?xml version="1.0" encoding="UTF-8" standalone="no"?>
<svg
   xmlns:dc="http://purl.org/dc/elements/1.1/"
   xmlns:cc="http://creativecommons.org/ns#"
   xmlns:rdf="http://www.w3.org/1999/02/22-rdf-syntax-ns#"
   xmlns:svg="http://www.w3.org/2000/svg"
   xmlns="http://www.w3.org/2000/svg"
   xmlns:sodipodi="http://sodipodi.sourceforge.net/DTD/sodipodi-0.dtd"
   xmlns:inkscape="http://www.inkscape.org/namespaces/inkscape"
   aria-hidden="true"
   focusable="false"
   data-prefix="far"
   data-icon="grin"
   class="svg-inline--fa fa-grin fa-w-16"
   role="img"
   viewBox="0 0 496 496"
   version="1.1"
   id="svg24"
   sodipodi:docname="grin-regular.svg"
   width="496"
   height="496"
   inkscape:version="1.0.2 (1.0.2+r75+1)">
  <metadata
     id="metadata30">
    <rdf:RDF>
      <cc:Work
         rdf:about="">
        <dc:format>image/svg+xml</dc:format>
        <dc:type
           rdf:resource="http://purl.org/dc/dcmitype/StillImage" />
        <dc:title></dc:title>
      </cc:Work>
    </rdf:RDF>
  </metadata>
  <defs
     id="defs28" />
  <sodipodi:namedview
     pagecolor="#ffffff"
     bordercolor="#666666"
     borderopacity="1"
     objecttolerance="10"
     gridtolerance="10"
     guidetolerance="10"
     inkscape:pageopacity="0"
     inkscape:pageshadow="2"
     inkscape:window-width="1920"
     inkscape:window-height="1173"
     id="namedview26"
     showgrid="false"
     inkscape:zoom="1.6523438"
     inkscape:cx="248"
     inkscape:cy="256"
     inkscape:window-x="0"
     inkscape:window-y="27"
     inkscape:window-maximized="1"
     inkscape:current-layer="svg24" />
  <path
     fill="currentColor"
     d="M 248,0 C 111,0 0,111 0,248 0,385 111,496 248,496 385,496 496,385 496,248 496,111 385,0 248,0 Z m 0,448 C 137.7,448 48,358.3 48,248 48,137.7 137.7,48 248,48 c 110.3,0 200,89.7 200,200 0,110.3 -89.7,200 -200,200 z M 353.6,296.6 c -25.9,8.3 -64.4,13.1 -105.6,13.1 -41.2,0 -79.6,-4.8 -105.6,-13.1 -9.9,-3.1 -19.4,5.4 -17.7,15.3 7.9,47.1 71.3,80 123.3,80 52,0 115.3,-32.9 123.3,-80 1.6,-9.8 -7.7,-18.4 -17.7,-15.3 z M 168,232 c 17.7,0 32,-14.3 32,-32 0,-17.7 -14.3,-32 -32,-32 -17.7,0 -32,14.3 -32,32 0,17.7 14.3,32 32,32 z m 160,0 c 17.7,0 32,-14.3 32,-32 0,-17.7 -14.3,-32 -32,-32 -17.7,0 -32,14.3 -32,32 0,17.7 14.3,32 32,32 z"
     id="path22" />
</svg>
