<?xml version="1.0" encoding="UTF-8" standalone="no"?>
<svg
   xmlns:dc="http://purl.org/dc/elements/1.1/"
   xmlns:cc="http://creativecommons.org/ns#"
   xmlns:rdf="http://www.w3.org/1999/02/22-rdf-syntax-ns#"
   xmlns:svg="http://www.w3.org/2000/svg"
   xmlns="http://www.w3.org/2000/svg"
   aria-hidden="true"
   focusable="false"
   data-prefix="far"
   data-icon="laugh"
   class="svg-inline--fa fa-laugh fa-w-16"
   role="img"
   viewBox="0 0 496 496"
   version="1.1"
   id="svg34"
   width="496"
   height="496">
  <metadata
     id="metadata40">
    <rdf:RDF>
      <cc:Work
         rdf:about="">
        <dc:format>image/svg+xml</dc:format>
        <dc:type
           rdf:resource="http://purl.org/dc/dcmitype/StillImage" />
        <dc:title></dc:title>
      </cc:Work>
    </rdf:RDF>
  </metadata>
  <defs
     id="defs38" />
  <path
     fill="currentColor"
     d="M 248,0 C 111,0 0,111 0,248 0,385 111,496 248,496 385,496 496,385 496,248 496,111 385,0 248,0 Z M 389.4,389.4 C 351.6,427.2 301.4,448 248,448 194.6,448 144.4,427.2 106.6,389.4 68.8,351.6 48,301.4 48,248 48,194.6 68.8,144.4 106.6,106.6 144.4,68.8 194.6,48 248,48 c 53.4,0 103.6,20.8 141.4,58.6 37.8,37.8 58.6,88 58.6,141.4 0,53.4 -20.8,103.6 -58.6,141.4 z M 328,216 c 17.7,0 32,-14.3 32,-32 0,-17.7 -14.3,-32 -32,-32 -17.7,0 -32,14.3 -32,32 0,17.7 14.3,32 32,32 z m -160,0 c 17.7,0 32,-14.3 32,-32 0,-17.7 -14.3,-32 -32,-32 -17.7,0 -32,14.3 -32,32 0,17.7 14.3,32 32,32 z m 194.4,64 H 133.6 c -8.2,0 -14.5,7 -13.5,15 7.5,59.2 58.9,105 121.1,105 h 13.6 c 62.2,0 113.6,-45.8 121.1,-105 1,-8 -5.3,-15 -13.5,-15 z"
     id="path32" />
</svg>
